HIERARCHY
ROOT root
{
	OFFSET	0	13.1	24.9
	CHANNELS 6  Xposition Yposition Zposition Xrotation Yrotation Zrotation
	JOINT spine_1
	{
		OFFSET	0	9.99999	0
		CHANNELS 3  Xrotation Yrotation Zrotation
		JOINT spine_2
		{
			OFFSET	0	112	-10
			CHANNELS 3  Xrotation Yrotation Zrotation
			JOINT spine_3
			{
				OFFSET	0	206.5	19.3
				CHANNELS 3  Xrotation Yrotation Zrotation
				JOINT spine_4
				{
					OFFSET	0	110.4	14.6
					CHANNELS 3  Xrotation Yrotation Zrotation
					JOINT neck_1
					{
						OFFSET	0	71.8	-50.3
						CHANNELS 3  Xrotation Yrotation Zrotation
						JOINT neck_2
						{
							OFFSET	0	86.2	-25.8
							CHANNELS 3  Xrotation Yrotation Zrotation
							JOINT head_ee
							{
								OFFSET	0	179.8	-8.7
								CHANNELS 3  Xrotation Yrotation Zrotation
								End Site
								{
									OFFSET	1	0	0
								}
							}
						}
					}
					JOINT left_clavicle
					{
						OFFSET	-43.2	22.4	-70.8
						CHANNELS 3  Xrotation Yrotation Zrotation
						JOINT left_shoulder
						{
							OFFSET	-93.9	-5.79999	48.7
							CHANNELS 3  Xrotation Yrotation Zrotation
							JOINT left_elbow
							{
								OFFSET	-291.4	-30.8	15.2
								CHANNELS 3  Xrotation Yrotation Zrotation
								JOINT left_lowarm_twist
								{
									OFFSET	-110.7	-3.89999	13.6
									CHANNELS 3  Xrotation Yrotation Zrotation
									JOINT left_hand
									{
										OFFSET	-110.7	-3.89999	13.6
										CHANNELS 3  Xrotation Yrotation Zrotation
										JOINT left_ee
										{
											OFFSET	-80.8	-5.10001	12.1
											CHANNELS 3  Xrotation Yrotation Zrotation
											End Site
											{
												OFFSET	1	0	0
											}
										}
									}
								}
							}
						}
					}
					JOINT right_clavicle
					{
						OFFSET	43.2	22.4	-70.8
						CHANNELS 3  Xrotation Yrotation Zrotation
						JOINT right_shoulder
						{
							OFFSET	93.9	-5.79999	48.7
							CHANNELS 3  Xrotation Yrotation Zrotation
							JOINT right_elbow
							{
								OFFSET	291.4	-30.8	15.2
								CHANNELS 3  Xrotation Yrotation Zrotation
								JOINT right_lowarm_twist
								{
									OFFSET	110.7	-3.89999	13.6
									CHANNELS 3  Xrotation Yrotation Zrotation
									JOINT right_hand
									{
										OFFSET	110.7	-3.89999	13.6
										CHANNELS 3  Xrotation Yrotation Zrotation
										JOINT right_ee
										{
											OFFSET	80.8	-5.10001	12.1
											CHANNELS 3  Xrotation Yrotation Zrotation
											End Site
											{
												OFFSET	1	0	0
											}
										}
									}
								}
							}
						}
					}
				}
			}
		}
	}
	JOINT left_hip
	{
		OFFSET	-82.8	-127.5	0.300001
		CHANNELS 3  Xrotation Yrotation Zrotation
		JOINT left_knee
		{
			OFFSET	-28.2	-396.7	2.2
			CHANNELS 3  Xrotation Yrotation Zrotation
			JOINT left_ankle
			{
				OFFSET	-11.7	-411.3	35.4
				CHANNELS 3  Xrotation Yrotation Zrotation
				JOINT left_toes
				{
					OFFSET	0	-60	-88.6
					CHANNELS 3  Xrotation Yrotation Zrotation
					JOINT left_foot_ee
					{
						OFFSET	-22.5	-16.5	-42.2
						CHANNELS 3  Xrotation Yrotation Zrotation
						End Site
						{
							OFFSET	1	0	0
						}
					}
				}
			}
		}
	}
	JOINT right_hip
	{
		OFFSET	82.8	-127.5	0.300001
		CHANNELS 3  Xrotation Yrotation Zrotation
		JOINT right_knee
		{
			OFFSET	28.2	-396.7	2.2
			CHANNELS 3  Xrotation Yrotation Zrotation
			JOINT right_ankle
			{
				OFFSET	11.7	-411.3	35.4
				CHANNELS 3  Xrotation Yrotation Zrotation
				JOINT right_toes
				{
					OFFSET	0	-60	-88.6
					CHANNELS 3  Xrotation Yrotation Zrotation
					JOINT right_foot_ee
					{
						OFFSET	22.5	-16.5	-42.2
						CHANNELS 3  Xrotation Yrotation Zrotation
						End Site
						{
							OFFSET	1	0	0
						}
					}
				}
			}
		}
	}
}
MOTION
Frames: 8
Frame Time: 0.02
440.874574088 693.35 -1152.79671518 -160.669835809 -38.9704175223 -167.776795698 4.66873 0.415526 1.60036 4.6701 0.312863 1.62355 4.67791 0.099644 1.65041 4.67428 0.359011 1.61398 -4.54924 8.68401 -4.08019 -4.37357 19.0075 -2.75169 -0.0 0.0 -0.0 -3.31665 7.55226 -5.0344 5.39756 -4.14932 79.5461 0.305588 -8.60824 0.0229994 74.9542 -3.26999 -8.30014 -6.26771 24.0209 -27.4621 -0.0 0.0 -0.0 7.23257 28.4764 -12.471 -16.3942 49.57 -74.472 0.420602 11.7696 -0.0433525 -69.4871 6.48059 -5.29736 -10.912 -32.0993 53.3164 0.0 0.0 0.0 26.0653 16.3417 2.51421 -26.3596 0.1662 4.00619 42.1378 20.2361 -5.22725 -5.81701 0.0 0.0 -0.0 0.0 -0.0 33.5398 27.0708 -5.30319 -23.5791 -0.236 -3.58524 42.659 -26.0026 5.45175 -34.414 0.0 0.0 0.0 0.0 0.0 
457.241177945 694.74 -1147.16007451 -163.871653519 -37.5483146244 -171.047077041 3.85683 0.361431 1.81001 3.85862 0.245542 1.82934 3.8655 -0.0200126 1.84563 3.86085 0.271672 1.82564 -4.30432 7.74348 -2.47867 -4.19544 16.0652 -1.28951 -0.0 0.0 -0.0 -2.92868 8.10734 -4.23352 8.90091 -3.48443 76.3411 0.364301 -10.2299 0.0326091 76.107 -3.39745 -8.37527 -6.43999 22.0175 -30.3864 -0.0 0.0 -0.0 7.1146 28.6359 -12.1947 -11.9884 51.5005 -81.9338 0.190214 5.38302 -0.00894206 -69.0835 6.42912 -5.29309 -11.125 -32.2631 55.2316 0.0 0.0 0.0 23.6813 13.3319 4.70145 -24.7949 0.207996 3.7697 42.2776 25.0413 -5.38265 -2.01689 0.0 0.0 -0.0 0.0 -0.0 38.2689 22.9816 -4.62009 -24.941 -0.204365 -3.79184 42.0337 -22.8273 5.28925 -31.8259 0.0 0.0 0.0 0.0 0.0 
455.754158667 694.74 -1145.49851518 -164.173990158 -36.1390933969 -171.55123862 3.85683 0.361431 1.81001 3.85862 0.245542 1.82934 3.8655 -0.0200126 1.84563 3.86085 0.271672 1.82564 -4.30432 7.74348 -2.47867 -4.19544 16.0652 -1.28951 -0.0 0.0 -0.0 -2.92868 8.10734 -4.23352 8.90091 -3.48443 76.3411 0.364301 -10.2299 0.0326091 76.107 -3.39745 -8.37527 -6.43999 22.0175 -30.3864 -0.0 0.0 -0.0 7.1146 28.6359 -12.1947 -11.9884 51.5005 -81.9338 0.190214 5.38302 -0.00894206 -69.0835 6.42912 -5.29309 -11.125 -32.2631 55.2316 0.0 0.0 0.0 23.6813 13.3319 4.70145 -24.7949 0.207996 3.7697 42.2776 25.0413 -5.38265 -2.01689 0.0 0.0 -0.0 0.0 -0.0 38.2689 22.9816 -4.62009 -24.941 -0.204365 -3.79184 42.0337 -22.8273 5.28925 -31.8259 0.0 0.0 0.0 0.0 0.0 
476.731392588 708.73 -1130.96130322 -163.225640279 -36.0162794764 -171.324128549 3.7235 0.29864 1.97097 3.72564 0.172642 1.98597 3.73055 -0.119413 1.98988 3.72507 0.196286 1.98377 -3.09036 6.93255 -1.86598 -2.98598 14.0563 -0.933795 -0.0 0.0 -0.0 -2.12377 8.60034 -2.71737 12.4123 -2.67238 74.3438 0.513493 -14.2718 0.0642862 76.4705 -3.43795 -8.39842 -6.58591 19.0028 -34.1319 -0.0 0.0 -0.0 6.81198 28.9884 -11.493 -13.2005 51.9437 -83.2781 0.176102 4.98574 -0.00766683 -68.5267 6.35815 -5.2866 -11.1267 -31.9932 55.8805 0.0 0.0 0.0 21.5091 11.2515 6.30702 -26.63 0.158322 4.04694 42.3403 25.9639 -5.42116 0.999943 -0.0 -0.0 -0.0 0.0 -0.0 43.2626 20.311 -5.03516 -27.3187 -0.137392 -4.15056 41.1511 -22.0277 5.18612 -28.8216 0.0 0.0 0.0 0.0 0.0 
485.631410626 721.19 -1119.76408767 -163.442925852 -36.4827311793 -171.729618577 3.77408 0.307772 2.18529 3.77672 0.168127 2.20044 3.7818 -0.15327 2.20152 3.77509 0.196257 2.19811 -2.7128 6.63797 -1.78752 -2.60994 13.4409 -0.936698 -0.0 0.0 -0.0 -1.70463 9.02882 -1.91054 13.4376 -2.49856 73.7689 0.575914 -15.9231 0.0805462 76.5594 -3.44788 -8.40405 -6.62112 18.0842 -35.2267 -0.0 0.0 -0.0 6.61434 28.6775 -11.096 -14.2192 51.9449 -82.8761 0.188004 5.32083 -0.00873585 -68.2787 6.32656 -5.28349 -11.1129 -31.8999 55.9428 0.0 0.0 0.0 20.2857 10.34 6.65047 -28.3496 0.103733 4.30519 42.1846 25.9917 -5.40784 1.80457 -0.0 -0.0 -0.0 0.0 -0.0 45.9324 19.1194 -6.02655 -27.4986 -0.131718 -4.17759 40.4549 -22.1906 5.12645 -27.9826 0.0 0.0 0.0 0.0 0.0 
493.848747153 717.277 -1114.97795245 -163.631121184 -36.7455444601 -171.64395168 3.86519 0.30985 2.29154 3.86809 0.163446 2.3066 3.87309 -0.169658 2.30615 3.86572 0.196585 2.30401 -1.97357 6.33572 -1.92863 -1.86073 12.9683 -1.20668 -0.0 0.0 -0.0 -1.40823 9.38546 -1.33769 15.455 -2.17682 72.4439 0.643177 -17.6726 0.0999871 76.6794 -3.46129 -8.41161 -6.64641 17.4477 -35.9972 -0.0 0.0 -0.0 6.62198 26.2048 -11.3788 -14.5024 52.1565 -85.8204 0.193475 5.47475 -0.00925053 -68.6487 6.3737 -5.28808 -11.2077 -32.4064 55.8187 0.0 0.0 0.0 18.9536 9.80984 6.97992 -29.0191 0.0803856 4.40529 41.8194 25.6006 -5.36004 2.2457 -0.0 -0.0 -0.0 0.0 -0.0 47.7227 18.2755 -6.60523 -27.7799 -0.122679 -4.21981 39.0975 -21.8265 4.98875 -27.3914 0.0 0.0 0.0 0.0 0.0 
494.823563795 717.277 -1116.10487149 -163.496951561 -37.3480743509 -171.421254677 3.86519 0.30985 2.29154 3.86809 0.163446 2.3066 3.87309 -0.169658 2.30615 3.86572 0.196585 2.30401 -1.97357 6.33572 -1.92863 -1.86073 12.9683 -1.20668 -0.0 0.0 -0.0 -1.40823 9.38546 -1.33769 15.455 -2.17682 72.4439 0.643177 -17.6726 0.0999871 76.6794 -3.46129 -8.41161 -6.64641 17.4477 -35.9972 -0.0 0.0 -0.0 6.62198 26.2048 -11.3788 -14.5024 52.1565 -85.8204 0.193475 5.47475 -0.00925053 -68.6487 6.3737 -5.28808 -11.2077 -32.4064 55.8187 0.0 0.0 0.0 18.9536 9.80984 6.97992 -29.0191 0.0803856 4.40529 41.8194 25.6006 -5.36004 2.2457 -0.0 -0.0 -0.0 0.0 -0.0 47.7227 18.2755 -6.60523 -27.7799 -0.122679 -4.21981 39.0975 -21.8265 4.98875 -27.3914 0.0 0.0 0.0 0.0 0.0 
501.173460632 715.496 -1111.87828611 -162.805196001 -37.7280146673 -170.954354254 3.92724 0.310286 2.37955 3.93037 0.158284 2.39447 3.93523 -0.184809 2.39257 3.92729 0.195261 2.39174 -1.82729 5.92088 -2.14577 -1.71655 12.3848 -1.50438 -0.0 0.0 -0.0 -0.311249 9.06259 0.531214 17.2018 -1.41156 71.7154 0.769119 -20.8567 0.141555 76.9223 -3.48849 -8.42684 -6.61335 16.3368 -36.7366 -0.0 0.0 -0.0 6.59994 23.0273 -11.642 -14.5795 52.3229 -88.1936 0.180134 5.09929 -0.00802119 -69.0489 6.4247 -5.29271 -11.1998 -32.3303 55.9102 0.0 0.0 0.0 17.232 9.6578 7.18777 -29.363 0.0679363 4.4566 42.3863 24.9927 -5.39087 2.56279 -0.0 -0.0 -0.0 0.0 -0.0 49.4336 17.8485 -6.73402 -27.8958 -0.118891 -4.2372 36.6604 -21.9527 4.75288 -26.9881 0.0 0.0 0.0 0.0 0.0 
